<svg width="16" height="14" viewBox="0 0 16 14" fill="none" xmlns="http://www.w3.org/2000/svg">
<path d="M15.922 13.3477L8.32425 0.188246C8.25702 0.0716711 8.13265 0 7.9982 0C7.86375 0 7.73933 0.0717147 7.67211 0.188246L0.0504508 13.3888C-0.0168169 13.5054 -0.0168169 13.6488 0.0504508 13.7654C0.117675 13.882 0.242053 13.9537 0.376544 13.9537H15.6197C15.6209 13.9537 15.6222 13.9537 15.6234 13.9537C15.8314 13.9537 16 13.7853 16 13.577C16 13.4906 15.9708 13.4113 15.922 13.3477ZM1.02882 13.2006L7.9982 1.1296L14.9675 13.2006H1.02882Z" fill="#F71EF4"/>
<path d="M7.62109 4.9405V10.3417C7.62109 10.5498 7.78968 10.7183 7.99767 10.7183C8.20562 10.7183 8.3742 10.5499 8.3742 10.3417V4.9405C8.3742 4.73272 8.20562 4.56396 7.99767 4.56396C7.78968 4.56401 7.62109 4.73277 7.62109 4.9405Z" fill="#F71EF4"/>
<path d="M7.99881 11.1567C7.74064 11.1567 7.53125 11.366 7.53125 11.6242C7.53125 11.8823 7.74064 12.0919 7.99881 12.0919C8.25694 12.0919 8.46637 11.8823 8.46637 11.6242C8.46637 11.366 8.25698 11.1567 7.99881 11.1567Z" fill="#F71EF4"/>
</svg>
