<svg width="20" height="15" viewBox="0 0 20 15" fill="none" xmlns="http://www.w3.org/2000/svg">
<path d="M18.8044 7.5C18.8044 7.5 14.8014 14 9.77795 14C4.75451 14 0.751465 7.5 0.751465 7.5C0.751465 7.5 4.75451 1 9.77795 1C14.8014 1 18.8044 7.5 18.8044 7.5Z" stroke="#00C38D" stroke-miterlimit="10" stroke-linecap="round" stroke-linejoin="round"/>
<path d="M9.77783 11.5C11.5118 11.5 12.9175 9.70914 12.9175 7.5C12.9175 5.29086 11.5118 3.5 9.77783 3.5C8.04385 3.5 6.63818 5.29086 6.63818 7.5C6.63818 9.70914 8.04385 11.5 9.77783 11.5Z" stroke="#00C38D" stroke-miterlimit="10" stroke-linecap="round" stroke-linejoin="round"/>
<path d="M9.77832 5.5C10.6417 5.5 11.3481 6.4 11.3481 7.5C11.3481 8.6 10.6417 9.5 9.77832 9.5C8.91492 9.5 8.2085 8.6 8.2085 7.5" stroke="#00C38D" stroke-miterlimit="10" stroke-linecap="round" stroke-linejoin="round"/>
</svg>
