<svg id="svg" version="1.1" xmlns="http://www.w3.org/2000/svg" xmlns:xlink="http://www.w3.org/1999/xlink" width="400" height="45" viewBox="0, 0, 400,383.33333333333337"><g id="svgg"><path id="path0" d="M0.000 35.475 L 0.000 70.949 13.806 70.949 C 22.755 70.949,27.613 70.814,27.613 70.566 C 27.613 70.355,27.853 70.182,28.147 70.182 C 29.119 70.182,29.147 69.207,29.147 34.484 L 29.147 0.000 14.573 0.000 L 0.000 0.000 0.000 35.475 M79.770 34.868 C 79.770 54.045,79.875 70.009,80.003 70.343 C 80.283 71.073,146.500 71.295,146.500 70.566 C 146.500 70.355,147.214 70.182,148.086 70.182 C 150.705 70.182,152.543 69.458,152.830 68.312 C 152.968 67.763,153.283 67.189,153.530 67.036 C 153.866 66.829,154.008 58.355,154.096 33.379 L 154.213 0.000 116.992 0.000 L 79.770 0.000 79.770 34.868 M204.806 34.803 C 204.816 63.135,204.913 69.732,205.328 70.278 C 206.110 71.309,277.220 71.319,278.423 70.289 C 279.186 69.636,279.195 69.220,279.195 34.814 L 279.195 0.000 241.994 0.000 L 204.794 0.000 204.806 34.803 M329.818 34.868 C 329.818 54.045,329.923 70.009,330.051 70.343 C 330.261 70.890,333.709 70.949,365.142 70.949 L 400.000 70.949 400.000 35.475 L 400.000 0.000 364.909 0.000 L 329.818 0.000 329.818 34.868 M-0.000 192.125 L 0.000 229.338 10.738 229.338 C 17.641 229.338,21.477 229.201,21.477 228.955 C 21.477 228.744,22.284 228.571,23.271 228.571 C 25.837 228.571,27.512 227.876,27.810 226.685 C 27.946 226.145,28.259 225.578,28.506 225.425 C 29.039 225.096,29.167 155.982,28.636 155.449 C 28.460 155.273,21.945 155.080,14.158 155.020 L -0.000 154.911 -0.000 192.125 M80.037 155.182 C 79.710 155.509,79.676 227.114,80.003 227.965 C 80.131 228.298,80.476 228.571,80.770 228.571 C 81.064 228.571,81.304 228.744,81.304 228.955 C 81.304 229.207,92.042 229.338,112.752 229.338 C 133.461 229.338,144.199 229.207,144.199 228.955 C 144.199 228.744,144.440 228.571,144.734 228.571 C 145.532 228.571,145.733 227.687,145.733 224.187 L 145.733 221.015 148.807 220.778 C 151.477 220.572,152.019 220.403,152.930 219.492 L 153.979 218.443 153.979 187.777 C 153.979 163.585,153.878 157.077,153.500 156.951 C 153.236 156.863,153.020 156.565,153.020 156.289 C 153.020 156.013,152.718 155.639,152.349 155.458 C 151.550 155.067,80.424 154.795,80.037 155.182 M205.214 155.468 C 204.884 155.866,204.798 165.119,204.878 191.743 C 204.997 231.394,204.807 228.571,207.360 228.571 C 207.847 228.571,208.245 228.744,208.245 228.955 C 208.245 229.208,219.687 229.338,241.802 229.338 C 263.918 229.338,275.360 229.208,275.360 228.955 C 275.360 228.744,275.834 228.566,276.414 228.559 C 279.220 228.527,279.003 231.661,279.003 191.259 L 279.003 155.129 242.330 155.032 C 211.361 154.949,205.589 155.017,205.214 155.468 M330.074 155.193 C 329.734 155.533,329.818 226.187,330.159 227.421 C 330.322 228.010,330.751 228.427,331.272 228.502 C 331.738 228.570,332.119 228.785,332.119 228.982 C 332.119 229.199,345.379 229.338,366.059 229.338 L 400.000 229.338 400.000 192.138 L 400.000 154.938 365.165 154.938 C 346.005 154.938,330.214 155.053,330.074 155.193 M-0.000 348.405 L 0.000 383.509 14.579 383.509 L 29.159 383.509 29.057 348.833 C 29.001 329.762,28.811 314.014,28.636 313.838 C 28.460 313.662,21.945 313.469,14.158 313.409 L -0.000 313.300 -0.000 348.405 M80.037 313.571 C 79.890 313.718,79.770 329.514,79.770 348.674 L 79.770 383.509 116.980 383.509 L 154.191 383.509 154.085 349.505 C 154.001 322.718,153.877 315.466,153.500 315.340 C 153.236 315.252,153.020 314.955,153.020 314.678 C 153.020 314.402,152.718 314.028,152.349 313.847 C 151.550 313.456,80.424 313.185,80.037 313.571 M205.256 313.785 C 204.902 314.139,204.794 322.375,204.794 348.878 L 204.794 383.509 241.996 383.509 L 279.199 383.509 279.101 348.514 L 279.003 313.519 242.360 313.421 C 214.179 313.346,205.611 313.430,205.256 313.785 M330.074 313.583 C 329.933 313.723,329.818 329.514,329.818 348.674 L 329.818 383.509 364.909 383.509 L 400.000 383.509 400.000 348.418 L 400.000 313.327 365.165 313.327 C 346.005 313.327,330.214 313.442,330.074 313.583 " stroke="none" fill="#242424" fill-rule="evenodd"></path><path id="path1" d="" stroke="none" fill="#282424" fill-rule="evenodd"></path><path id="path2" d="" stroke="none" fill="#282424" fill-rule="evenodd"></path><path id="path3" d="" stroke="none" fill="#282424" fill-rule="evenodd"></path><path id="path4" d="" stroke="none" fill="#282424" fill-rule="evenodd"></path></g></svg>